<?xml version="1.0"?>
<svg xmlns="http://www.w3.org/2000/svg" viewBox="0 -76 512 512" width="512px" height="512px"><path d="m144.5 209.425781-15.378906 20.890625 15.378906.03125zm0 0" fill="#4d2712"/><path d="m383 209.425781-15.378906 20.890625 15.378906.03125zm0 0" fill="#4d2712"/><path d="m257 263.839844c10.835938 0 19.648438-11.105469 19.648438-24.753906v-35.179688c0-13.648438-8.8125-24.75-19.648438-24.75s-19.648438 11.101562-19.648438 24.75v35.179688c0 13.648437 8.8125 24.753906 19.648438 24.753906zm0 0" fill="#4d2712"/><path d="m512 80.644531v-35.644531c0-24.8125-20.1875-45-45-45h-422c-24.8125 0-45 20.1875-45 45v35.644531zm-443.105469-19.230469c-8.28125 0-15-6.71875-15-15 0-8.285156 6.71875-15 15-15 8.285157 0 15 6.714844 15 15 0 8.28125-6.714843 15-15 15zm51.035157 0c-8.285157 0-15-6.71875-15-15 0-8.285156 6.714843-15 15-15 8.28125 0 15 6.714844 15 15 0 8.28125-6.71875 15-15 15zm51.03125 0c-8.285157 0-15-6.71875-15-15 0-8.285156 6.714843-15 15-15 8.28125 0 15 6.714844 15 15 0 8.28125-6.71875 15-15 15zm0 0" fill="#4d2712"/><path d="m0 110.644531v205.347657c0 24.8125 20.1875 45 45 45h422c24.8125 0 45-20.1875 45-45v-205.347657zm325.917969 125.722657 60-81.519532c3.84375-5.21875 10.605469-7.378906 16.761719-5.359375s10.320312 7.769531 10.320312 14.25v66.675781c8.066406.265626 14.515625 6.894532 14.5 15.019532-.015625 8.105468-6.460938 14.699218-14.5 14.964844v18.859374c0 8.28125-6.714844 15-15 15s-15-6.71875-15-15v-18.910156l-45.027344-.085937c-5.652344-.011719-10.820312-3.199219-13.363281-8.246094-2.546875-5.046875-2.039063-11.09375 1.308594-15.648437zm-118.566407-32.460938c0-30.1875 22.273438-54.75 49.648438-54.75s49.648438 24.5625 49.648438 54.75v35.183594c0 30.1875-22.273438 54.75-49.648438 54.75s-49.648438-24.5625-49.648438-54.753906zm-119.933593 32.460938 60-81.519532c3.84375-5.21875 10.605469-7.378906 16.761719-5.359375s10.320312 7.769531 10.320312 14.25v66.675781c8.066406.265626 14.515625 6.894532 14.5 15.019532-.015625 8.105468-6.460938 14.699218-14.5 14.964844v18.859374c0 8.28125-6.714844 15-15 15s-15-6.71875-15-15v-18.910156l-45.027344-.085937c-5.652344-.011719-10.820312-3.199219-13.363281-8.246094-2.546875-5.046875-2.039063-11.09375 1.308594-15.648437zm0 0" fill="#4d2712"/></svg>
