<?xml version="1.0" encoding="UTF-8"?>
<!DOCTYPE svg PUBLIC "-//W3C//DTD SVG 1.1//EN" "http://www.w3.org/Graphics/SVG/1.1/DTD/svg11.dtd">
<!-- Creator: CorelDRAW 2017 -->
<svg xmlns="http://www.w3.org/2000/svg" xml:space="preserve" width="56.643mm" height="15.84mm" version="1.1" style="shape-rendering:geometricPrecision; text-rendering:geometricPrecision; image-rendering:optimizeQuality; fill-rule:evenodd; clip-rule:evenodd"
viewBox="0 0 5664.3 1584"
 xmlns:xlink="http://www.w3.org/1999/xlink">
 <defs>
  <style type="text/css">
   <![CDATA[
    .fil2 {fill:none;fill-rule:nonzero}
    .fil3 {fill:#4D2712}
    .fil0 {fill:#FBC01C}
    .fil1 {fill:#4D2712;fill-rule:nonzero}
   ]]>
  </style>
 </defs>
 <g id="Camada_x0020_1">
  <metadata id="CorelCorpID_0Corel-Layer"/>
  <g id="_2778560036016">
   <path class="fil0" d="M712.73 1584.01c121.01,-93.8 246.14,-217.95 349.78,-356.68 239.03,-319.97 386.14,-824.87 -23.96,-1083.45 -186.79,-117.78 -464.85,-117.78 -651.64,0 -410.1,258.58 -262.99,763.48 -23.96,1083.45 103.64,138.73 228.77,262.88 349.78,356.68zm11.13 -1286.61c119.43,0 216.27,96.84 216.27,216.27 0,119.43 -96.84,216.27 -216.27,216.27 -119.43,0 -216.27,-96.84 -216.27,-216.27 0,-119.43 96.84,-216.27 216.27,-216.27z"/>
   <path class="fil1" d="M903.16 1331.66c-13.05,-1.96 -22.05,-14.14 -20.09,-27.19 1.95,-13.06 14.13,-22.05 27.19,-20.1 79.11,11.91 151.2,28.94 213.18,49.95 63,21.36 115.75,47 155.05,75.73 10.63,7.79 12.93,22.74 5.14,33.37 -7.79,10.63 -22.73,12.92 -33.36,5.13 -35.3,-25.81 -83.68,-49.17 -142.16,-69 -59.12,-20.05 -128.43,-36.38 -204.95,-47.89z"/>
   <path class="fil1" d="M37.28 1449.14c-10.93,7.38 -25.79,4.49 -33.17,-6.44 -7.38,-10.93 -4.49,-25.8 6.44,-33.17 39.64,-26.72 91.31,-50.6 152.23,-70.61 59.8,-19.64 128.68,-35.64 203.95,-47.01 13.06,-1.95 25.24,7.05 27.19,20.1 1.96,13.05 -7.04,25.24 -20.09,27.19 -72.81,10.99 -139.09,26.35 -196.28,45.14 -56.62,18.59 -104.24,40.52 -140.27,64.8z"/>
   <path class="fil2" d="M638.88 1552.37c121.02,-93.8 246.15,-217.95 349.78,-356.68 239.04,-319.97 386.15,-824.87 -23.95,-1083.45 -186.79,-117.78 -464.86,-117.78 -651.65,0 -410.1,258.58 -262.98,763.48 -23.95,1083.45 103.63,138.73 228.77,262.88 349.77,356.68zm11.14 -1286.61c119.43,0 216.26,96.84 216.26,216.27 0,119.43 -96.83,216.27 -216.26,216.27 -119.43,0 -216.27,-96.84 -216.27,-216.27 0,-119.43 96.84,-216.27 216.27,-216.27z"/>
   <path class="fil1" d="M638.89 1522.07c56.58,-44.89 113.9,-96.42 169.29,-152.89 56.69,-57.81 111.44,-121.01 161.33,-187.79 20.46,-27.38 40,-55.75 58.29,-84.75 94.39,-149.71 163.93,-326.89 170.15,-495.73 6.12,-165.94 -49.52,-324.21 -204.44,-439.93 -13.51,-10.09 -27.35,-19.62 -41.51,-28.55 -89.43,-56.4 -201.14,-84.6 -313.11,-84.6 -111.98,0 -223.69,28.21 -313.12,84.6 -14.16,8.92 -28.02,18.47 -41.51,28.55 -154.9,115.72 -210.56,273.99 -204.44,439.93 6.21,168.83 75.75,346 170.15,495.71 18.28,29.02 37.84,57.39 58.3,84.77 49.89,66.78 104.64,129.99 161.33,187.8 55.38,56.47 112.71,107.99 169.29,152.88zm203.3 -119.43c-61.49,62.69 -125.46,119.53 -188.39,168.33 -8.39,6.73 -20.6,7.14 -29.49,0.27 -63.03,-48.86 -127.13,-105.79 -188.71,-168.6 -58.52,-59.67 -114.75,-124.53 -165.64,-192.65 -20.63,-27.62 -40.87,-57.04 -60.35,-87.96 -98.4,-156.04 -170.9,-341.52 -177.45,-519.44 -6.66,-180.81 54.18,-353.44 223.5,-479.92 13.73,-10.26 28.64,-20.48 44.69,-30.6 97.35,-61.39 218.09,-92.09 338.54,-92.09 120.44,0 241.18,30.7 338.53,92.09 16.05,10.12 30.95,20.33 44.68,30.6 169.33,126.48 230.17,299.11 223.51,479.93 -6.56,177.91 -79.06,363.4 -177.45,519.45 -19.49,30.91 -39.7,60.31 -60.34,87.94 -50.89,68.12 -107.13,132.97 -165.63,192.65zm-192.17 -1160.8c66.31,0 126.36,26.89 169.82,70.36 43.47,43.47 70.36,103.52 70.36,169.83 0,66.31 -26.89,126.36 -70.36,169.83 -43.46,43.46 -103.52,70.36 -169.82,70.36 -66.31,0 -126.36,-26.9 -169.83,-70.37 -43.47,-43.46 -70.37,-103.52 -70.37,-169.82 0,-66.31 26.9,-126.36 70.36,-169.83 43.48,-43.47 103.53,-70.36 169.84,-70.36zm136 104.18c-34.79,-34.8 -82.88,-56.33 -136,-56.33 -53.12,0 -101.22,21.53 -136.02,56.33 -34.8,34.79 -56.33,82.89 -56.33,136.01 0,53.11 21.53,101.21 56.34,136 34.79,34.81 82.89,56.34 136.01,56.34 53.11,0 101.21,-21.53 136,-56.33 34.8,-34.79 56.33,-82.89 56.33,-136.01 0,-53.13 -21.53,-101.22 -56.33,-136.01z"/>
   <polygon class="fil3" points="273.55,1038.16 339.41,972.3 405.27,1038.16 "/>
   <polygon class="fil3" points="571.43,1038.16 637.29,972.3 703.15,1038.16 "/>
   <polygon class="fil3" points="869.41,1038.16 935.27,972.3 1001.12,1038.16 "/>
   <polygon class="fil3" points="553.43,872.07 487.58,937.92 421.72,872.07 "/>
   <polygon class="fil3" points="851.54,872.07 785.68,937.92 719.82,872.07 "/>
   <path class="fil1" d="M189.44 824.83c-13.21,0 -23.92,-10.72 -23.92,-23.92 0,-13.21 10.71,-23.93 23.92,-23.93l893.77 0c13.2,0 23.92,10.72 23.92,23.93 0,13.2 -10.72,23.92 -23.92,23.92l-893.77 0z"/>
   <path class="fil1" d="M278.5 985.85c-8.92,9.7 -24.03,10.33 -33.73,1.4 -9.69,-8.92 -10.32,-24.03 -1.4,-33.73l77.91 -84.32c8.93,-9.69 24.04,-10.32 33.73,-1.4l132.77 138.51 132.04 -136.55c9.13,-9.49 24.24,-9.78 33.73,-0.65l132.77 138.91 131.56 -137.71c9.08,-9.55 24.19,-9.92 33.74,-0.84l84.92 89.94c9.02,9.59 8.56,24.71 -1.03,33.74 -9.59,9.02 -24.71,8.56 -33.74,-1.03l-66.71 -70.7 -132.29 138.43c-9.54,9.09 -24.65,8.71 -33.74,-0.83l-132.13 -138.29 -132.67 137.17c-9.49,9.13 -24.6,8.84 -33.73,-0.65l-131.32 -137.06 -60.68 65.66z"/>
   <path class="fil1" d="M353.77 1145.06c-13.02,0 -23.59,-10.67 -23.59,-23.82 0,-13.16 10.57,-23.83 23.59,-23.83l570.74 0c13.02,0 23.58,10.67 23.58,23.83 0,13.15 -10.56,23.82 -23.58,23.82l-570.74 0z"/>
   <path class="fil1" d="M866.63 1233.71l-207.61 213.23c-9.19,9.44 -24.3,9.66 -33.74,0.47l-209.23 -214.89c-9.18,-9.44 -8.97,-24.55 0.47,-33.74 4.63,-4.51 10.64,-6.75 16.64,-6.75l417.53 -0.07c13.2,0 23.92,10.72 23.92,23.92 0,7.09 -3.09,13.45 -7.98,17.83zm-224.71 162.4l152.18 -156.3 -304.35 0 152.17 156.3z"/>
   <polygon class="fil3" points="728.55,1267.19 641.92,1356.17 555.29,1267.19 "/>
   <path class="fil1" d="M1797.44 313.26l-102.1 0 0 467.17 64.07 0 0 -330.36 1.33 0 53.39 330.36 69.41 0 49.38 -335.03 1.34 0 0 335.03 69.41 0 0 -467.17 -102.11 0 -49.39 331.69 -1.33 0 -53.4 -331.69zm422.46 0l-107.45 0 -74.75 467.17 67.41 0 12.68 -84.76 90.1 0 12.68 84.76 74.08 0 -74.75 -467.17zm-58.06 82.76l1.33 0 34.71 236.25 -70.75 0 34.71 -236.25zm274.96 -82.76l-108.11 0 0 467.17 73.41 0 0 -175.53 34.7 0c73.41,0 109.45,-40.7 109.45,-115.46l0 -60.73c0,-74.74 -36.04,-115.45 -109.45,-115.45zm0 66.74c23.35,0 36.04,10.67 36.04,44.04l0 70.08c0,33.37 -12.69,44.05 -36.04,44.05l-34.7 0 0 -158.17 34.7 0zm297.66 -66.74l-107.45 0 -74.75 467.17 67.4 0 12.68 -84.76 90.1 0 12.68 84.76 74.08 0 -74.74 -467.17zm-58.07 82.76l1.34 0 34.7 236.25 -70.74 0 34.7 -236.25zm250.27 384.41l116.12 0c73.42,0 109.46,-40.72 109.46,-115.46l0 -236.26c0,-74.74 -36.04,-115.45 -109.46,-115.45l-116.12 0 0 467.17zm114.79 -400.43c23.36,0 37.37,12.01 37.37,45.38l0 242.92c0,33.38 -14.01,45.39 -37.37,45.39l-41.37 0 0 -333.69 41.37 0zm230.92 0l126.8 0 0 -66.74 -200.21 0 0 467.17 200.21 0 0 -66.74 -126.8 0 0 -136.82 100.77 0 0 -66.73 -100.77 0 0 -130.14zm463.83 407.1c-7.35,-17.35 -8.01,-34.03 -8.01,-56.72l0 -72.08c0,-48.72 -12.01,-83.42 -48.72,-98.77l0 -1.34c32.7,-15.35 48.05,-46.05 48.05,-94.1l0 -36.71c0,-72.08 -32.71,-107.45 -108.78,-107.45l-110.79 0 0 467.17 73.41 0 0 -190.2 25.36 0c33.37,0 48.06,16.02 48.06,59.4l0 73.41c0,38.04 2.66,45.38 6.67,57.39l74.75 0zm-119.47 -400.42c26.03,0 37.38,14.67 37.38,48.04l0 46.05c0,37.37 -16.69,49.39 -44.05,49.39l-28.7 0 0 -143.48 35.37 0zm232.92 0l126.81 0 0 -66.75 -200.22 0 0 467.17 200.22 0 0 -66.73 -126.81 0 0 -136.82 100.78 0 0 -66.74 -100.78 0 0 -130.13zm315.67 226.24l0 66.73c0,33.37 -14.68,45.39 -38.04,45.39 -23.36,0 -38.04,-12.02 -38.04,-45.39l0 -252.27c0,-33.37 14.68,-46.05 38.04,-46.05 23.36,0 38.04,12.68 38.04,46.05l0 50.06 69.41 0 0 -45.38c0,-74.76 -37.38,-117.46 -109.46,-117.46 -72.07,0 -109.44,42.7 -109.44,117.46l0 242.92c0,74.75 37.37,117.46 109.44,117.46 72.08,0 109.46,-42.71 109.46,-117.46l0 -62.06 -69.41 0zm276.97 -292.99l-107.45 0 -74.76 467.17 67.41 0 12.68 -84.75 90.1 0 12.68 84.75 74.08 0 -74.74 -467.17zm-58.07 82.76l1.33 0 34.71 236.26 -70.75 0 34.71 -236.26zm323.68 384.41l75.42 0 0 -467.17 -65.41 0 0 279.64 -1.34 0 -74.07 -279.64 -92.1 0 0 467.17 66.07 0 0 -338.36 1.33 0 90.1 338.36zm106.78 -400.42l76.76 0 0 400.42 73.41 0 0 -400.42 76.75 0 0 -66.75 -226.92 0 0 66.75zm326.36 40.7c0,-33.37 14.67,-46.05 38.03,-46.05 23.37,0 38.04,12.68 38.04,46.05l0 252.27c0,33.37 -14.67,46.06 -38.04,46.06 -23.36,0 -38.03,-12.69 -38.03,-46.06l0 -252.27zm-73.42 247.6c0,74.75 39.38,117.46 111.45,117.46 72.08,0 111.46,-42.71 111.46,-117.46l0 -242.92c0,-74.76 -39.38,-117.46 -111.46,-117.46 -72.07,0 -111.45,42.7 -111.45,117.46l0 242.92zm260.95 -242.92c0,53.39 19.36,92.09 80.76,146.15 48.04,42.05 62.73,67.41 62.73,101.44 0,33.37 -14.69,45.39 -38.05,45.39 -23.35,0 -38.04,-12.02 -38.04,-45.39l0 -33.36 -69.4 0 0 28.69c0,74.75 37.37,117.46 109.45,117.46 72.08,0 109.45,-42.71 109.45,-117.46 0,-53.39 -19.35,-92.09 -80.75,-146.15 -48.06,-42.05 -62.74,-67.41 -62.74,-101.45 0,-33.37 13.35,-46.05 36.71,-46.05 23.36,0 36.7,12.68 36.7,46.05l0 19.35 69.41 0 0 -14.67c0,-74.76 -36.7,-117.46 -108.11,-117.46 -71.41,0 -108.12,42.7 -108.12,117.46zm-3475.73 960.15l75.42 0 0 -467.17 -65.41 0 0 279.64 -1.34 0 -74.07 -279.64 -92.1 0 0 467.17 66.07 0 0 -338.36 1.33 0 90.1 338.36zm201.56 -400.42l126.8 0 0 -66.75 -200.21 0 0 467.17 200.21 0 0 -66.73 -126.8 0 0 -136.82 100.77 0 0 -66.74 -100.77 0 0 -130.13zm282.29 206.88l33.37 0 0 86.1c0,33.36 -14.68,45.38 -38.04,45.38 -23.36,0 -38.03,-12.02 -38.03,-45.38l0 -252.28c0,-33.36 14.67,-46.05 38.03,-46.05 23.36,0 38.04,12.69 38.04,46.05l0 50.06 69.41 0 0 -45.38c0,-74.75 -37.37,-117.46 -109.45,-117.46 -72.07,0 -109.45,42.71 -109.45,117.46l0 242.92c0,74.75 37.38,117.46 109.45,117.46 72.08,0 109.45,-42.71 109.45,-117.46l0 -148.16 -102.78 0 0 66.74zm378.42 193.54c-7.35,-17.35 -8.01,-34.03 -8.01,-56.72l0 -72.08c0,-48.72 -12.02,-83.42 -48.73,-98.77l0 -1.34c32.71,-15.35 48.06,-46.05 48.06,-94.1l0 -36.71c0,-72.08 -32.71,-107.45 -108.78,-107.45l-110.79 0 0 467.17 73.41 0 0 -190.2 25.36 0c33.37,0 48.06,16.02 48.06,59.4l0 73.41c0,38.04 2.66,45.38 6.66,57.39l74.76 0zm-119.47 -400.42c26.03,0 37.37,14.67 37.37,48.04l0 46.05c0,37.38 -16.68,49.39 -44.04,49.39l-28.7 0 0 -143.48 35.37 0zm226.92 40.7c0,-33.36 14.67,-46.05 38.03,-46.05 23.36,0 38.04,12.69 38.04,46.05l0 252.28c0,33.36 -14.68,46.05 -38.04,46.05 -23.36,0 -38.03,-12.69 -38.03,-46.05l0 -252.28zm-73.42 247.6c0,74.75 39.38,117.46 111.45,117.46 72.08,0 111.45,-42.71 111.45,-117.46l0 -242.92c0,-74.75 -39.37,-117.46 -111.45,-117.46 -72.07,0 -111.45,42.71 -111.45,117.46l0 242.92zm333.7 112.12l116.12 0c73.41,0 109.45,-40.71 109.45,-115.45l0 -236.26c0,-74.74 -36.04,-115.46 -109.45,-115.46l-116.12 0 0 467.17zm114.78 -400.42c23.36,0 37.38,12.01 37.38,45.38l0 242.92c0,33.38 -14.02,45.39 -37.38,45.39l-41.37 0 0 -333.69 41.37 0zm230.92 0l126.8 0 0 -66.75 -200.21 0 0 467.17 200.21 0 0 -66.73 -126.8 0 0 -136.82 100.77 0 0 -66.74 -100.77 0 0 -130.13zm212.89 52.05c0,53.39 19.36,92.1 80.76,146.16 48.05,42.05 62.73,67.4 62.73,101.44 0,33.37 -14.68,45.38 -38.04,45.38 -23.36,0 -38.04,-12.01 -38.04,-45.38l0 -33.37 -69.41 0 0 28.7c0,74.75 37.37,117.46 109.45,117.46 72.08,0 109.45,-42.71 109.45,-117.46 0,-53.39 -19.35,-92.1 -80.75,-146.16 -48.05,-42.04 -62.74,-67.4 -62.74,-101.44 0,-33.37 13.36,-46.05 36.71,-46.05 23.36,0 36.71,12.68 36.71,46.05l0 19.35 69.4 0 0 -14.68c0,-74.75 -36.7,-117.46 -108.11,-117.46 -71.41,0 -108.12,42.71 -108.12,117.46zm421.79 -112.12l-107.45 0 -74.75 467.17 67.4 0 12.69 -84.75 90.1 0 12.67 84.75 74.09 0 -74.75 -467.17zm-58.06 82.76l1.33 0 34.71 236.26 -70.75 0 34.71 -236.26zm166.84 384.41l194.21 0 0 -66.73 -120.8 0 0 -400.44 -73.41 0 0 467.17zm258.94 -467.17l-74.08 0 72.08 467.17 109.45 0 72.08 -467.17 -67.4 0 -55.4 381.08 -1.33 0 -55.4 -381.08zm359.72 0l-107.45 0 -74.75 467.17 67.41 0 12.68 -84.75 90.1 0 12.68 84.75 74.08 0 -74.75 -467.17zm-58.06 82.76l1.33 0 34.71 236.26 -70.75 0 34.71 -236.26zm166.85 384.41l116.12 0c73.41,0 109.45,-40.71 109.45,-115.46l0 -236.25c0,-74.75 -36.04,-115.46 -109.45,-115.46l-116.12 0 0 467.17zm114.79 -400.43c23.35,0 37.37,12.02 37.37,45.38l0 242.93c0,33.37 -14.02,45.39 -37.37,45.39l-41.38 0 0 -333.7 41.38 0zm224.91 40.71c0,-33.37 14.67,-46.05 38.03,-46.05 23.36,0 38.04,12.68 38.04,46.05l0 252.27c0,33.37 -14.68,46.05 -38.04,46.05 -23.36,0 -38.03,-12.68 -38.03,-46.05l0 -252.27zm-73.42 247.6c0,74.75 39.38,117.46 111.45,117.46 72.08,0 111.45,-42.71 111.45,-117.46l0 -242.93c0,-74.75 -39.37,-117.46 -111.45,-117.46 -72.07,0 -111.45,42.71 -111.45,117.46l0 242.93zm498.54 112.12c-7.35,-17.35 -8.01,-34.04 -8.01,-56.72l0 -72.08c0,-48.73 -12.01,-83.43 -48.72,-98.77l0 -1.34c32.7,-15.35 48.05,-46.05 48.05,-94.1l0 -36.71c0,-72.08 -32.7,-107.45 -108.78,-107.45l-110.78 0 0 467.17 73.41 0 0 -190.2 25.36 0c33.36,0 48.05,16.02 48.05,59.4l0 73.41c0,38.04 2.66,45.38 6.67,57.39l74.75 0zm-119.46 -400.43c26.03,0 37.37,14.68 37.37,48.05l0 46.05c0,37.37 -16.69,49.39 -44.05,49.39l-28.69 0 0 -143.49 35.37 0z"/>
  </g>
 </g>
</svg>
