<?xml version="1.0" encoding="UTF-8"?>
<!DOCTYPE svg PUBLIC "-//W3C//DTD SVG 1.1//EN" "http://www.w3.org/Graphics/SVG/1.1/DTD/svg11.dtd">
<!-- Creator: CorelDRAW 2017 -->
<svg xmlns="http://www.w3.org/2000/svg" xml:space="preserve" width="12.882mm" height="15.762mm" version="1.1" style="shape-rendering:geometricPrecision; text-rendering:geometricPrecision; image-rendering:optimizeQuality; fill-rule:evenodd; clip-rule:evenodd"
viewBox="0 0 1288.2 1576.2"
 xmlns:xlink="http://www.w3.org/1999/xlink">
 <defs>
  <style type="text/css">
   <![CDATA[
    .fil1 {fill:none;fill-rule:nonzero}
    .fil2 {fill:#FEFEFE}
    .fil0 {fill:#FEFEFE;fill-rule:nonzero}
   ]]>
  </style>
 </defs>
 <g id="Camada_x0020_1">
  <metadata id="CorelCorpID_0Corel-Layer"/>
  <g id="_2778561986112">
   <path class="fil0" d="M903.12 1331.66c-13.05,-1.96 -22.05,-14.14 -20.09,-27.19 1.95,-13.06 14.13,-22.05 27.19,-20.1 79.11,11.91 151.2,28.94 213.18,49.95 63,21.36 115.75,47 155.05,75.73 10.63,7.79 12.93,22.74 5.14,33.37 -7.79,10.63 -22.73,12.92 -33.36,5.13 -35.3,-25.81 -83.68,-49.17 -142.16,-69 -59.12,-20.05 -128.43,-36.38 -204.95,-47.89z"/>
   <path class="fil0" d="M37.24 1449.14c-10.93,7.38 -25.79,4.49 -33.17,-6.44 -7.38,-10.93 -4.49,-25.8 6.44,-33.17 39.64,-26.72 91.31,-50.6 152.23,-70.61 59.8,-19.64 128.68,-35.64 203.95,-47.01 13.06,-1.95 25.24,7.05 27.19,20.1 1.96,13.05 -7.04,25.24 -20.09,27.19 -72.81,10.99 -139.09,26.35 -196.28,45.14 -56.62,18.59 -104.24,40.52 -140.27,64.8z"/>
   <path class="fil1" d="M638.84 1552.37c121.02,-93.8 246.15,-217.95 349.78,-356.68 239.04,-319.97 386.15,-824.87 -23.95,-1083.45 -186.79,-117.78 -464.86,-117.78 -651.65,0 -410.1,258.58 -262.98,763.48 -23.95,1083.45 103.63,138.73 228.77,262.88 349.77,356.68zm11.14 -1286.61c119.43,0 216.26,96.84 216.26,216.27 0,119.43 -96.83,216.27 -216.26,216.27 -119.43,0 -216.27,-96.84 -216.27,-216.27 0,-119.43 96.84,-216.27 216.27,-216.27z"/>
   <path class="fil0" d="M638.85 1522.07c56.58,-44.89 113.9,-96.42 169.29,-152.89 56.69,-57.81 111.44,-121.01 161.33,-187.79 20.46,-27.38 40,-55.75 58.29,-84.75 94.39,-149.71 163.93,-326.89 170.15,-495.73 6.12,-165.94 -49.52,-324.21 -204.44,-439.93 -13.51,-10.09 -27.35,-19.62 -41.51,-28.55 -89.43,-56.4 -201.14,-84.6 -313.11,-84.6 -111.98,0 -223.69,28.21 -313.12,84.6 -14.16,8.92 -28.02,18.47 -41.51,28.55 -154.9,115.72 -210.56,273.99 -204.44,439.93 6.21,168.83 75.75,346 170.15,495.71 18.28,29.02 37.84,57.39 58.3,84.77 49.89,66.78 104.64,129.99 161.33,187.8 55.38,56.47 112.71,107.99 169.29,152.88zm203.3 -119.43c-61.49,62.69 -125.46,119.53 -188.39,168.33 -8.39,6.73 -20.6,7.14 -29.49,0.27 -63.03,-48.86 -127.13,-105.79 -188.71,-168.6 -58.52,-59.67 -114.75,-124.53 -165.64,-192.65 -20.63,-27.62 -40.87,-57.04 -60.35,-87.96 -98.4,-156.04 -170.9,-341.52 -177.45,-519.44 -6.66,-180.81 54.18,-353.44 223.5,-479.92 13.73,-10.26 28.64,-20.48 44.69,-30.6 97.35,-61.39 218.09,-92.09 338.54,-92.09 120.44,0 241.18,30.7 338.53,92.09 16.05,10.12 30.95,20.33 44.68,30.6 169.33,126.48 230.17,299.11 223.51,479.93 -6.56,177.91 -79.06,363.4 -177.45,519.45 -19.49,30.91 -39.7,60.31 -60.34,87.94 -50.89,68.12 -107.13,132.97 -165.63,192.65zm-192.17 -1160.8c66.31,0 126.36,26.89 169.82,70.36 43.47,43.47 70.36,103.52 70.36,169.83 0,66.31 -26.89,126.36 -70.36,169.83 -43.46,43.46 -103.52,70.36 -169.82,70.36 -66.31,0 -126.36,-26.9 -169.83,-70.37 -43.47,-43.46 -70.37,-103.52 -70.37,-169.82 0,-66.31 26.9,-126.36 70.36,-169.83 43.48,-43.47 103.53,-70.36 169.84,-70.36zm136 104.18c-34.79,-34.8 -82.88,-56.33 -136,-56.33 -53.12,0 -101.22,21.53 -136.02,56.33 -34.8,34.79 -56.33,82.89 -56.33,136.01 0,53.11 21.53,101.21 56.34,136 34.79,34.81 82.89,56.34 136.01,56.34 53.11,0 101.21,-21.53 136,-56.33 34.8,-34.79 56.33,-82.89 56.33,-136.01 0,-53.13 -21.53,-101.22 -56.33,-136.01z"/>
   <polygon class="fil2" points="273.51,1038.16 339.37,972.3 405.23,1038.16 "/>
   <polygon class="fil2" points="571.39,1038.16 637.25,972.3 703.11,1038.16 "/>
   <polygon class="fil2" points="869.37,1038.16 935.23,972.3 1001.08,1038.16 "/>
   <polygon class="fil2" points="553.39,872.07 487.54,937.92 421.68,872.07 "/>
   <polygon class="fil2" points="851.5,872.07 785.64,937.92 719.78,872.07 "/>
   <path class="fil0" d="M189.4 824.83c-13.21,0 -23.92,-10.72 -23.92,-23.92 0,-13.21 10.71,-23.93 23.92,-23.93l893.77 0c13.2,0 23.92,10.72 23.92,23.93 0,13.2 -10.72,23.92 -23.92,23.92l-893.77 0z"/>
   <path class="fil0" d="M278.46 985.85c-8.92,9.7 -24.03,10.33 -33.73,1.4 -9.69,-8.92 -10.32,-24.03 -1.4,-33.73l77.91 -84.32c8.93,-9.69 24.04,-10.32 33.73,-1.4l132.77 138.51 132.04 -136.55c9.13,-9.49 24.24,-9.78 33.73,-0.65l132.77 138.91 131.56 -137.71c9.08,-9.55 24.19,-9.92 33.74,-0.84l84.92 89.94c9.02,9.59 8.56,24.71 -1.03,33.74 -9.59,9.02 -24.71,8.56 -33.74,-1.03l-66.71 -70.7 -132.29 138.43c-9.54,9.09 -24.65,8.71 -33.74,-0.83l-132.13 -138.29 -132.67 137.17c-9.49,9.13 -24.6,8.84 -33.73,-0.65l-131.32 -137.06 -60.68 65.66z"/>
   <path class="fil0" d="M353.73 1145.06c-13.02,0 -23.59,-10.67 -23.59,-23.82 0,-13.16 10.57,-23.83 23.59,-23.83l570.74 0c13.02,0 23.58,10.67 23.58,23.83 0,13.15 -10.56,23.82 -23.58,23.82l-570.74 0z"/>
   <path class="fil0" d="M866.59 1233.71l-207.61 213.23c-9.19,9.44 -24.3,9.66 -33.74,0.47l-209.23 -214.89c-9.18,-9.44 -8.97,-24.55 0.47,-33.74 4.63,-4.51 10.64,-6.75 16.64,-6.75l417.53 -0.07c13.2,0 23.92,10.72 23.92,23.92 0,7.09 -3.09,13.45 -7.98,17.83zm-224.71 162.4l152.18 -156.3 -304.35 0 152.17 156.3z"/>
   <polygon class="fil2" points="709.18,1277.12 641.88,1346.24 574.58,1277.12 "/>
  </g>
 </g>
</svg>
